<svg xmlns="http://www.w3.org/2000/svg" viewBox="0 0 500 500" width="500" height="500">
    <path style="stroke: rgb(111, 191, 64); paint-order: fill;" d="M 192.007 257.819 C 188.429 257.22 180.123 255.234 173.649 253.944 C 173.066 253.828 167.935 255.141 167.448 254.654 C 166.458 253.664 167.724 244.706 167.679 243.663 C 167.605 241.922 165.504 239.201 167.085 238.469 C 168.192 237.956 173.418 239.43 173.946 238.264 C 175.465 234.906 175.367 229.755 174.914 226.117 C 174.87 225.765 174.31 219.445 174.415 219.397 C 177.476 217.979 190.282 216.924 194.083 217.995 C 195.432 218.375 196.021 224.55 198.104 224.517 C 201.502 224.462 205.528 206.413 208.172 205.154 C 209.814 204.372 237.502 204.332 244.741 205.023 C 246.739 205.214 251.59 188.874 253.095 181.827 C 253.774 178.648 250.56 171.953 253.808 172.101 C 258.987 172.336 281.883 186.594 283.891 190.611 C 284.328 191.485 279.777 195.185 279.19 196.34 C 277.861 198.956 283.412 200.171 283.772 201.813 C 284.321 204.309 280.502 207.257 281.126 209.074 C 285.925 223.046 298.348 231.149 304.406 243.268 C 307.417 249.29 317.065 251.203 319.032 259.07 C 319.424 260.638 315.374 263.038 315.148 265.461 C 314.746 269.774 315.339 274.562 316.018 278.744 C 316.284 280.383 316.707 281.993 317.138 283.597 C 317.445 284.745 319.094 287.823 318.254 286.982 C 315.821 284.549 311.379 282.184 308.386 280.434 C 307.986 280.2 304.368 276.951 304.27 277.063 C 300.864 280.967 301.267 287.704 298.416 291.98 C 297.119 293.926 290.984 295.226 288.922 296.269 C 281.826 299.858 275.8 303.88 268.06 305.87 C 261.623 307.524 262.256 283.821 261.001 282.566 C 260.926 282.492 248.92 285.087 248.424 285.126 C 239.397 285.844 246.133 281.921 241.843 284.604 C 230.627 291.617 231.992 297.22 231.992 309.736 C 231.992 309.918 233.179 325.924 231.992 327.041 C 229.467 329.418 216.599 332.926 214.5 330.828 C 212.694 329.021 213.299 326.362 209.796 324.472 C 208.694 323.878 201.193 322.203 200.269 321.28 C 199.414 320.425 207.932 308.473 207.483 305.053 C 206.607 298.378 203.776 285.728 201.24 280.214 C 200.376 278.335 204.836 275.432 204.359 274.477 C 201.583 268.925 194.046 260.736 192.08 257.978"/>
    <path style="stroke: rgb(111, 191, 64); fill: none" d="M 253.194 172.616 C 253.194 156.442 254.669 141.833 253.767 125.663 C 253.716 124.751 236.019 112.223 235.352 106.025 C 234.502 98.132 247.21 94.496 247.151 87.085 C 247.137 85.247 239.428 78.559 238.593 75.447 C 235.336 63.312 242.276 51.66 234.952 40.831 C 230.381 34.074 225.062 27.776 219.21 22.092 C 210.148 13.289 196.366 3.126 185.47 -5.046"/>
    <path style="stroke: rgb(111, 191, 64); fill: none" d="M 283.717 190.864 C 293.127 184.738 301.039 181.721 311.206 177.125 C 314.081 175.824 306.997 172.401 305.192 169.812 C 303.658 167.612 294.961 155.425 296.406 151.176 C 300.61 138.811 325.894 129.536 337.036 125.653 C 341.644 124.047 363.592 132.039 366.018 135.328 C 366.225 135.609 376.715 146.991 377.011 146.632 C 378.05 145.376 379.746 135.402 381.393 135.444 C 394.341 135.771 407.233 135.465 420.321 136.006 C 421.244 136.044 433.719 137.193 435.871 136.508 C 441.595 134.687 447.32 117.744 451.59 113.404 C 457.004 107.902 463.738 104.19 470.867 101.105 C 472.707 100.309 475.829 100.397 476.257 98.439 C 477.248 93.9 476.838 88.656 476.838 84.167 C 476.838 78.722 476.838 73.276 476.838 67.831"/>
    <path style="stroke: rgb(111, 191, 64); fill: none" d="M 282.676 202.819 C 299.091 204.466 297.525 200.514 304.594 184.609 C 305.796 181.905 310.514 184.879 313.446 185.28 C 325.742 186.962 325.955 183.777 337.568 188.417"/>
    <path style="stroke: rgb(111, 191, 64); fill: none" d="M 303.986 185.428 C 302.102 183.766 302.21 182.705 300.678 181.173"/>
    <path style="stroke: rgb(111, 191, 64); fill: none" d="M 393.883 169.006 C 394.724 164.079 394.621 156.652 396.96 152.177 C 397.953 150.276 401.26 152.653 403.39 152.402 C 415.517 150.97 419.439 149.983 411.932 140.744 C 410.5 138.982 408.807 137.17 407.286 135.649"/>
    <path style="stroke: rgb(111, 191, 64); fill: none" d="M 329.875 129.05 C 335.86 152.827 345.202 149.164 362.525 162.136 C 364.278 163.449 364.329 176.377 364.329 179.871"/>
    <path style="stroke: rgb(111, 191, 64); fill: none" d="M 311.756 135.784 C 302.042 125.244 294.712 125.077 281.797 131.717 C 275.213 135.102 263.037 131.43 254.454 134.275"/>
    <path style="stroke: rgb(111, 191, 64); fill: none" d="M 318.29 255.863 C 323.481 254.931 328.071 254.185 333.441 253.881 C 338.611 253.588 343.824 252.741 348.968 253.342 C 369.769 255.775 361.016 262.938 370.796 279.238 C 374.729 285.793 380.893 293.665 386.564 299.134 C 404.187 316.124 432.757 315.054 452.148 328.578 C 452.721 328.977 454.034 335.168 454.462 335.792 C 459.71 343.453 466.57 353.231 475.163 357.528"/>
    <path style="stroke: rgb(111, 191, 64); fill: none" d="M 343.494 252.895 C 341.778 234.937 341.514 226.416 339.226 206.774 C 338.704 202.285 338.422 198.092 337.32 193.689 C 336.731 191.336 333.011 186.347 335.417 186.664 C 336.344 186.787 337.728 189.504 337.432 188.617 C 338.376 184.385 339.15 179.633 340.324 175.449 C 341.11 172.645 346.139 175.944 348.997 176.5 C 356.112 177.885 369.076 183.536 376.671 182.692 C 380.831 182.23 386.607 170.54 392.116 168.788 C 393.318 168.405 403.94 175.349 406.377 175.823 C 416.489 177.787 424.859 170.179 431.612 170.179"/>
    <path style="stroke: rgb(111, 191, 64); fill: none" d="M 364.5 181.273 C 363.639 193.385 367.264 206.828 362.063 218.283 C 359.778 223.315 356.34 230.207 358.454 236.113 C 359.797 239.865 364.23 240.799 365.74 243.819 C 367.827 247.992 363.08 254.581 363.08 258.753"/>
    <path style="stroke: rgb(111, 191, 64); fill: none" d="M 329.415 254.254 C 329.683 241.769 320.296 234.526 313.796 224.439 C 308.657 216.464 300.914 208.822 296.927 200.906"/>
    <path style="stroke: rgb(111, 191, 64); fill: none" d="M 359.633 237.824 C 361.892 236.476 366.608 229.674 367.954 231.94 C 372.447 239.502 376.875 249.99 392.899 253.996 C 394.648 254.434 399.662 250.446 401.126 250.008 C 407.756 248.024 412.906 247.329 419.637 249.932 C 430.748 254.228 432.229 266.833 440.583 273.099 C 442.559 274.581 450.93 273.479 451.722 273.548 C 464.422 274.653 479.282 277.008 491.133 278.828"/>
    <path style="stroke: rgb(111, 191, 64); fill: none" d="M 400.839 250.008 C 400.14 243.03 396.777 233.838 396.946 227.086 C 397.006 224.694 408.211 222.827 407.471 221.346 C 400.991 208.385 390.105 191.437 379.967 181.299"/>
    <path style="stroke: rgb(111, 191, 64); fill: none" d="M 392.87 254.237 C 392.679 256.378 386.772 267.504 388.957 269.689 C 390.024 270.756 393.465 269.022 394.785 270.343 C 396.873 272.431 398.229 277.95 400.162 280.573 C 400.895 281.569 402.849 281.962 402.785 283.197 C 402.698 284.883 397.871 285.871 396.59 287.145 C 393.319 290.399 389.363 297.442 389.363 302.028"/>
    <path style="stroke: rgb(111, 191, 64); fill: none" d="M 298.953 127.584 C 307.014 116.06 312.249 97.667 320.887 88.889 C 321.609 88.156 315.652 75.352 318.366 71.452 C 328.316 57.158 339.293 63.017 354.093 60.786 C 354.949 60.657 351.965 49.311 352.163 48.871 C 355.81 40.742 367.243 38.722 371.992 31.533"/>
    <path style="stroke: rgb(111, 191, 64); fill: none" d="M 405.552 217.145 C 407.516 214.559 411.028 213.839 413.26 211.486 C 414.223 210.472 420.015 213.828 420.89 214.14 C 427.244 216.406 429.62 220.27 434.814 214.992"/>
    <path style="stroke: rgb(111, 191, 64); fill: none" d="M 396.98 226.371 C 385.38 214.675 386.101 216.719 371.969 223.673 C 370.89 224.204 363.869 218.782 361.078 218.782"/>
    <path style="stroke: rgb(111, 191, 64); fill: none" d="M 311.696 220.655 C 316.315 215.526 309.656 213.554 328.015 219.463 C 329.197 219.843 334.442 222.337 335.651 221.723 C 337.408 220.83 338.311 215.848 340.634 215.848"/>
    <path style="stroke: rgb(111, 191, 64); fill: none" d="M 318.835 285.368 C 328.59 296.999 329.213 293.898 344.54 295.681 C 347.592 296.036 343.908 317.16 345.591 317.634 C 347.026 318.039 354.541 317.4 354.962 318.322 C 357.56 324.021 355.891 332.128 357.975 338.138 C 358.211 338.819 369.249 337.317 371.146 338.134 C 382.883 343.19 395.21 346.46 407.137 350.793"/>
    <path style="stroke: rgb(111, 191, 64); fill: none" d="M 357.837 338.238 C 353.887 356.597 356.714 347.425 368.281 358.483 C 369.439 359.59 365.63 365.314 365.136 366.287 C 364.031 368.462 366.697 370.941 367.901 373.061 C 373.049 382.122 395.606 388.27 397.938 398.875 C 398.793 402.763 396.583 406.921 396.583 410.694"/>
    <path style="stroke: rgb(111, 191, 64); fill: none" d="M 354.828 318.194 C 355.216 316.884 357.305 308.409 358.81 307.93 C 359.627 307.67 372.742 313.654 372.742 313.448 C 372.742 305.625 371.421 296.45 377.773 289.996"/>
    <path style="stroke: rgb(111, 191, 64); fill: none" d="M 372.551 313.567 C 376.282 315.187 382.123 318.526 382.123 313.134"/>
    <path style="stroke: rgb(111, 191, 64); fill: none" d="M 344.53 296.546 C 344.425 294.731 339.576 278.261 341.12 275.124 C 342.673 271.967 348.557 273.492 349.734 271.1 C 350.461 269.623 347.823 265.631 348.204 263.321 C 348.778 259.848 353.271 257.406 353.271 254.23"/>
    <path style="stroke: rgb(111, 191, 64); fill: none" d="M 349.613 271.328 C 353.78 274.94 358.192 279.084 363.351 281.016 C 366.888 282.341 360.618 289.676 363.289 292.346 C 365.741 294.799 370.749 296.853 373.654 299.758"/>
    <path style="stroke: rgb(111, 191, 64); fill: none" d="M 298.411 289.472 C 298.411 291.652 295.508 310.48 296.059 311.006 C 299.142 313.953 308.22 315.061 309.329 320.103 C 310.071 323.479 308.365 334.029 310.545 336.122 C 313.036 338.515 317.918 336.332 319.913 338.227 C 322.438 340.626 310.897 354.545 325.358 353.549 C 327.605 353.394 330.845 352.472 333.104 352.472 C 334.836 352.472 335.775 356.327 335.183 357.956 C 333.751 361.89 334.294 364.534 334.294 368.075"/>
    <path style="stroke: rgb(111, 191, 64); fill: none" d="M 307.822 318.89 C 317.925 326.267 321.374 321.924 330.976 317.476 C 334.452 315.865 342.151 317.592 345.508 317.592"/>
    <path style="stroke: rgb(111, 191, 64); fill: none" d="M 333.513 352.832 C 343.961 348.353 343.625 357.45 354.711 356.14 C 355.4 356.058 352.954 351.873 352.953 351.871 C 352.093 349.378 353.167 344.492 355.804 344.492 C 354.336 343.024 350.693 345.158 349.004 344.314 C 345.267 342.445 341.802 336.639 338.893 333.73 C 333.913 328.75 323.853 336.601 319.163 337.993"/>
    <path style="stroke: rgb(111, 191, 64); fill: none" d="M 330.658 332.927 C 336.894 338.651 340.888 343.932 340.888 352.022"/>
    <path style="stroke: rgb(111, 191, 64); fill: none" d="M 325.908 319.817 C 325.074 316.758 319.929 309.475 319.989 307.074 C 320.097 302.751 326.597 297.988 326.597 293.034"/>
    <path style="stroke: rgb(111, 191, 64); fill: none" d="M 267.123 306.347 C 267.123 313.067 265.454 323.17 265.454 329.89 C 265.454 332.14 265.298 334.396 265.454 336.641 C 266.756 355.32 274.965 348.313 291.37 352.436 C 294.426 353.204 300.274 355.107 303.223 356.916 C 305.085 358.059 296.937 369.137 298.071 370.811 C 309.158 387.181 314.012 403.499 319.45 421.949 C 321.2 427.886 312.5 436.876 315.121 440.076 C 320.214 446.293 335.484 444.379 343.086 445.76"/>
    <path style="stroke: rgb(111, 191, 64); fill: none" d="M 319.877 422.818 C 323.374 423.276 335.037 418.397 336.325 419.685 C 345.804 429.164 366.11 432.867 378.28 438.543 C 386.353 442.308 391.94 451.783 400.651 455.759 C 406.864 458.594 418.108 455.056 422.971 458.214 C 428.662 461.908 423.665 460.37 433.634 464.27 C 437.272 465.694 442.194 464.354 445.018 467.053 C 445.83 467.829 447.037 474.303 444.317 470.215"/>
    <path style="stroke: rgb(111, 191, 64); fill: none" d="M 306.192 384.436 C 314.765 385.692 325.408 378.47 332.413 381.973 C 336.862 384.197 340.511 385.879 345.789 384.851 C 347.942 384.431 348.929 376.397 350.57 374.314 C 351.897 372.63 364.545 368.683 364.545 367.28"/>
    <path style="stroke: rgb(111, 191, 64); fill: none" d="M 232.492 326.921 C 233.389 329.218 243.099 341.204 242.492 343.597 C 240.187 352.683 235.066 361.584 232.074 370.593 C 231.635 371.915 228.339 377.626 228.71 379.059 C 229.655 382.711 236.331 385.565 236.842 388.664 C 237.316 391.539 232.167 393.787 232.778 396.228 C 235.113 405.568 249.95 416.011 256.1 421.889 C 257.765 423.481 248.8 430.656 248.11 431.911 C 244.368 438.717 245.462 446.928 247.726 453.753"/>
    <path style="stroke: rgb(111, 191, 64); fill: none" d="M 254.309 421.202 C 258.506 417.42 265.229 406.863 270.014 404.432 C 270.818 404.024 282.782 410.624 284.755 411.448 C 285.884 411.919 291.221 408.832 292.216 408.437 C 300.043 405.332 290.435 416.159 313.765 402.373"/>
    <path style="stroke: rgb(111, 191, 64); fill: none" d="M 236.416 388.82 C 247.912 388.82 259.034 387.981 270.48 386.701 C 273.712 386.34 278.034 389.705 280.218 387.296 C 285.295 381.696 289.595 372.76 297.521 370.094"/>
    <path style="stroke: rgb(111, 191, 64); fill: none" d="M 236.336 359.319 C 240.731 360.584 251.341 364.69 254.884 362.89 C 258.022 361.296 265.465 348.344 268.788 348.344"/>
    <path style="stroke: rgb(111, 191, 64); fill: none" d="M 240.355 338.526 C 249.462 334.652 253.993 336.522 265.701 336.522"/>
    <path style="stroke: rgb(111, 191, 64); fill: none" d="M 264.875 319.107 C 259.762 317.016 250.831 313.744 244.944 314.945 C 242.37 315.47 236.192 322.103 233.415 319.326"/>
    <path style="stroke: rgb(111, 191, 64); fill: none" d="M 231.456 297.683 C 237.922 299.01 240.655 310.108 243.527 315.42"/>
    <path style="stroke: rgb(111, 191, 64); fill: none" d="M 238.775 305.422 C 243.446 302.113 251.029 299.119 256.499 299.623 C 259.931 299.939 266.544 298.773 263.098 298.773"/>
    <path style="stroke: rgb(111, 191, 64); fill: none" d="M 247.67 286.111 C 247.152 289.112 245.649 294.699 248.262 297.197 C 248.785 297.697 253.849 299.383 253.028 299.383"/>
    <path style="stroke: rgb(111, 191, 64); fill: none" d="M 217.389 331.328 C 216.067 338.708 220.737 346.535 218.711 351.904 C 217.781 354.367 215.634 356.052 213.494 357.435 C 211.915 358.455 207.198 359.067 208.63 360.283 C 209.072 360.659 215.928 360.492 215.509 361.294 C 212.084 367.865 205.587 372.832 203.151 379.822 C 202.184 382.598 207.239 391.446 207.239 395.121 C 207.239 401.805 204.165 403.919 202.001 410.129 C 201.493 411.587 205.442 412.963 205.735 414.497 C 206.447 418.224 202.771 421.003 202.771 424.807"/>
    <path style="stroke: rgb(111, 191, 64); fill: none" d="M 215.225 360.604 C 219.775 368.8 223.961 367.835 231.446 371.367"/>
    <path style="stroke: rgb(111, 191, 64); fill: none" d="M 205.111 389.642 C 208.223 392.375 214.697 391.883 216.877 394.063 C 221.933 399.12 222.929 405.255 229.962 411.728 C 230.272 412.013 239.755 406.267 238.64 406.267"/>
    <path style="stroke: rgb(111, 191, 64); fill: none" d="M 201.078 280.465 C 195.6 280.875 189.064 281.307 183.543 281.307 C 181.148 281.307 177.7 277.591 176.541 279.688 C 172.349 287.273 168.73 299.451 161.916 305.025 C 159.082 307.344 151.876 307.253 150.074 309.132 C 143.631 315.85 140.914 320.56 132.6 327.276 C 128.347 330.712 114.411 343.138 108.294 343.124 C 104.006 343.114 101.634 337.712 98.143 335.223 C 92.772 331.395 86.601 328.289 81.446 324.22 C 76.826 320.573 70.075 327.272 64.35 328.635 C 38.111 334.88 26.411 335.728 11.226 355.915"/>
    <path style="stroke: rgb(111, 191, 64); fill: none" d="M 199.787 320.638 C 196.707 324.568 189.614 335.091 184.829 336.575 C 178.722 338.468 170.184 336.36 163.859 336.106 C 161.186 335.998 157.712 333.517 155.86 335.448 C 153.484 337.925 153.242 348.585 152.221 351.781 C 149.281 360.991 144.66 369.078 138.74 376.544 C 131.008 386.294 120.111 404.002 109.999 410.364 C 104.443 413.859 89.254 414.99 87.384 415.918 C 84.346 417.425 84.191 434.815 80.861 441.378"/>
    <path style="stroke: rgb(111, 191, 64); fill: none" d="M 204.1 376.87 C 201.94 373.878 199.063 369.969 196.483 367.292 C 194.033 364.749 180.379 376.399 177.192 374.806 C 167.415 369.918 158.354 361.645 147.417 361.645"/>
    <path style="stroke: rgb(111, 191, 64); fill: none" d="M 179.22 337.359 C 181.385 349.518 180.225 345.252 195.766 340.867 C 201.747 339.18 212.793 344.266 218.459 344.266"/>
    <path style="stroke: rgb(111, 191, 64); fill: none" d="M 192.6 329.288 C 187.72 324.965 181.966 319.539 177.843 314.466 C 177.264 313.753 176.308 309.112 175.92 308.99 C 170.299 307.22 164.788 310.652 161.606 304.335"/>
    <path style="stroke: rgb(111, 191, 64); fill: none" d="M 177.232 279.047 C 180.85 296.769 195.025 298.683 207.69 305.015"/>
    <path style="stroke: rgb(111, 191, 64); fill: none" d="M 191.243 257.585 C 187.345 266.297 191.952 272.95 190.013 280.656"/>
    <path style="stroke: rgb(111, 191, 64); fill: none" d="M 169.704 293.239 C 146.44 285.511 167.737 267.404 167.737 255.052 C 163.618 262.577 156.994 258.694 148.924 255.91 C 146.09 254.932 137.269 258.795 134.269 259.273 C 132.647 259.532 124.518 259.908 123.186 261.725 C 121.312 264.284 120.292 276.136 120.292 279.38 C 120.292 280.197 120.145 286.832 120.084 286.808 C 102.049 279.872 97.946 254.373 79.113 265.654"/>
    <path style="stroke: rgb(111, 191, 64); fill: none" d="M 151.033 308.177 C 147.387 302.721 145.878 302.389 143.643 299.147 C 131.773 281.923 145.997 275.824 147.569 261.035 C 147.9 257.923 148.027 258.412 148.027 255.986"/>
    <path style="stroke: rgb(111, 191, 64); fill: none" d="M 121.633 267.44 C 145.269 272.073 128.669 267.311 139.534 281.655"/>
    <path style="stroke: rgb(111, 191, 64); fill: none" d="M 120.209 285.711 C 121.854 292.122 126.95 297.593 128.43 303.515 C 128.783 304.927 127.11 309.985 127.456 310.315 C 132.997 315.612 127.679 318.426 136.842 323.391 C 138.926 333.785 137.732 331.014 155.129 336.718"/>
    <path style="stroke: rgb(111, 191, 64); fill: none" d="M 166.959 238.941 C 164.766 237.778 151.984 234.429 151.339 232.168 C 149.519 225.781 152.839 213.692 152.839 206.916 C 152.839 204.846 154.018 201.379 152.043 200.757 C 129.595 193.686 103.659 203.899 80.97 195.338 C 78.898 194.556 77.887 188.317 77.068 186.539 C 73.557 178.916 69.864 172.755 63.041 167.638"/>
    <path style="stroke: rgb(111, 191, 64); fill: none" d="M 177.351 218.148 C 176.695 214.645 177.01 215.296 175.358 211.635 C 168.711 196.902 162.817 208.965 152.449 208.965"/>
    <path style="stroke: rgb(111, 191, 64); fill: none" d="M 168.746 204.187 C 166.452 195.301 163.05 186.564 160.046 177.898 C 158.856 174.465 160.715 168.366 157.221 167.37 C 148.873 164.991 151.557 168.227 146.211 158.954 C 142.801 153.039 139.92 141.085 135.353 136.518 C 133.664 134.829 123.677 137.582 123.018 135.269 C 119.845 124.137 116.659 112.619 112.014 101.888 C 110.716 98.889 106.813 93.96 106.813 91.097"/>
    <path style="stroke: rgb(111, 191, 64); fill: none" d="M 130.869 197.291 C 133.432 186.949 140.239 181.581 145.087 173.275 C 145.819 172.021 147.777 170.892 149.301 164.586"/>
    <path style="stroke: rgb(111, 191, 64); fill: none" d="M 134.175 259.212 C 132.878 254.506 122.784 237.599 128.642 234.623 C 129.221 234.329 137.21 237.697 140.095 236.982 C 144.937 235.783 146.148 233.662 151.439 232.141"/>
    <path style="stroke: rgb(111, 191, 64); fill: none" d="M 128.605 234.374 C 120.816 230.577 109.072 225.983 101.173 221.895 C 98.797 220.665 96.265 224.03 93.755 224.955 C 85.817 227.879 76.634 227.954 68.966 231.53 C 66.721 232.578 65.034 236.153 62.859 236.827 C 60.278 237.627 57.783 234.962 55.203 234.157 C 47.197 231.662 39.489 229.357 31.422 227.337"/>
    <path style="stroke: rgb(111, 191, 64); fill: none" d="M 207.921 205.598 C 206.141 197.811 206.071 176.935 199.325 171.993 C 196.279 169.762 188.058 170.646 186.408 168.996 C 183.133 165.721 184.402 145.777 184.131 142.667 C 183.406 134.337 181.587 120.971 177.923 113.642 C 176.015 109.828 170.562 108.788 168.674 105.011 C 167.324 102.313 174.654 95.26 175.738 93.056 C 176.843 90.811 172.911 88.889 171.932 86.586 C 167.39 75.907 152.586 46.891 136.443 46.891"/>
    <path style="stroke: rgb(111, 191, 64); fill: none" d="M 201.76 177.911 C 207.483 175.169 209.61 166.934 214.419 164.598 C 218.899 162.421 220.471 169.66 223.089 171.458 C 227.385 174.408 230.144 168.271 232.11 166.273 C 234.994 163.343 248.257 167.595 251.906 167.595 C 256.113 167.595 261.927 163.792 266.994 166.326 C 269.981 167.82 272.914 171.784 276.315 172.67 C 278.638 173.276 285.759 169.176 286.169 169.601 C 289.642 173.205 289.976 181.786 290.879 186.247"/>
    <path style="stroke: rgb(111, 191, 64); fill: none" d="M 193.697 218.159 C 194.155 213.357 194.962 206.946 194.004 202.155 C 193.998 202.124 188.664 200.889 188.089 200.573 C 186.144 199.506 184.475 193.559 182.655 191.739 C 181.736 190.82 183.579 185.643 183.427 184.206 C 183.382 183.777 181.034 182.05 180.798 181.736 C 178.914 179.223 177.702 176.048 176.09 174.435 C 172.999 171.344 172.835 164.6 172.153 160.651 C 171.624 157.585 169.919 153.526 169.919 150.483"/>
    <path style="stroke: rgb(111, 191, 64); fill: none" d="M 201.984 177.719 C 201.071 178.4 194.547 184.78 196.856 186.197 C 197.534 186.613 199.755 188.938 199.601 189.815 C 198.961 193.456 196.601 195.677 194.832 198.33 C 194.117 199.402 196.511 202.887 194.394 202.887"/>
    <path style="stroke: rgb(111, 191, 64); fill: none" d="M 215.834 163.865 C 215.611 159.332 214.689 154.687 215.368 150.151 C 215.442 149.661 217.273 146.043 217.061 145.62 C 215.721 142.939 212.583 141.108 211.173 138.288 C 210.146 136.232 212.038 130.639 211.464 129.802 C 210.293 128.091 205.942 127.871 204.275 127.037 C 202.589 126.194 202.632 120.074 201.813 118.447"/>
    <path style="stroke: rgb(111, 191, 64); fill: none" d="M 210.373 128.487 C 214.913 124.33 212.136 121.53 212.136 116.058"/>
    <path style="stroke: rgb(111, 191, 64); fill: none" d="M 135.298 136.262 C 135.52 135.042 138.05 125.987 137.862 125.81 C 135.701 123.784 132.935 121.307 134.486 118.183"/>
    <path style="stroke: rgb(111, 191, 64); fill: none" d="M 78.397 194.467 C 73.993 194.467 73.113 193.359 70.114 190.36 C 69.2 189.445 67.652 191.166 66.389 191.445 C 62.002 192.415 57.673 193.2 53.237 193.865"/>
    <path style="stroke: rgb(111, 191, 64); fill: none" d="M 68.56 231.344 C 66.547 227.329 66.049 225.537 61.76 224.678"/>
    <path style="stroke: rgb(111, 191, 64); fill: none" d="M 99.065 221.153 C 95.35 219.285 94.967 217.47 90.67 217.47"/>
    <path style="stroke: rgb(111, 191, 64); fill: none" d="M 91.932 262.916 C 91.932 258.196 92.394 255.626 86.987 255.626"/>
    <path style="stroke: rgb(111, 191, 64); fill: none" d="M 77.298 322.757 C 73.473 319.526 69.263 312.856 64.993 315.678"/>
    <path style="stroke: rgb(111, 191, 64); fill: none" d="M 201.484 410.207 C 198.704 411.114 195.771 411.676 192.892 412.188 C 191.651 412.41 190.421 412.723 189.166 412.845 C 187.275 413.029 185.369 412.996 183.472 413.104 C 177.452 413.445 179.077 413.038 179.35 419.468 C 179.423 421.177 179.401 422.889 179.35 424.599 C 179.271 427.254 179.021 429.543 177.832 431.917"/>
    <path style="stroke: rgb(111, 191, 64); fill: none" d="M 108.644 411.343 C 108.644 412.597 109.166 414.623 108.753 415.924 C 108.45 416.875 106.594 417.55 106.594 418.333 C 106.594 419.956 108.056 424.114 107.658 425.077 C 107.066 426.511 104.062 427.049 104.062 428.533"/>
    <path style="stroke: rgb(111, 191, 64); fill: none" d="M 476.419 275.744 C 475.225 281.765 476.637 285.792 480.738 289.893"/>
    <path style="stroke: rgb(111, 191, 64); fill: none" d="M 457.592 339.215 C 463.186 338.353 461.807 339.045 464.388 341.626"/>
    <path style="stroke: rgb(111, 191, 64); fill: none" d="M 397.749 347.496 C 402.096 342.936 402.254 343.497 408.275 343.765 C 408.646 343.781 414.984 343.413 414.984 343.999"/>
    <path style="stroke: rgb(111, 191, 64); fill: none" d="M 426.224 171.23 C 427.449 173.165 428.661 175.009 430.172 176.736 C 437.456 185.062 444.549 176.088 454.191 177.678 C 456.559 178.069 457.797 182.398 460.732 182.398"/>
</svg>